HIERARCHY
ROOT Hips
{
	OFFSET -0.179506 -22.333345 2.821913
	CHANNELS 6 Xposition Yposition Zposition Zrotation Yrotation Xrotation 
	JOINT LeftUpLeg
	{
		OFFSET 6.951974 -9.140623 -0.681533
		CHANNELS 3 Zrotation Yrotation Xrotation
		JOINT LeftLeg
		{
			OFFSET 3.427654 -37.519855 -0.449580
			CHANNELS 3 Zrotation Yrotation Xrotation
			JOINT LeftFoot
			{
				OFFSET -1.359570 -39.796059 -4.369333
				CHANNELS 3 Zrotation Yrotation Xrotation
				JOINT LeftToe
				{
					OFFSET 2.635814 -5.579078 11.928840
					CHANNELS 3 Zrotation Yrotation Xrotation
					End Site
					{
						OFFSET 0.000000 0.000000 0.000000
					}
				}
			}
		}
	}
	JOINT RightUpLeg
	{
		OFFSET -6.767048 -9.052170 -0.431982
		CHANNELS 3 Zrotation Yrotation Xrotation
		JOINT RightLeg
		{
			OFFSET -3.829005 -38.256897 -0.885003
			CHANNELS 3 Zrotation Yrotation Xrotation
			JOINT RightFoot
			{
				OFFSET 1.577377 -39.841461 -4.231180
				CHANNELS 3 Zrotation Yrotation Xrotation
				JOINT RightToe
				{
					OFFSET -2.537174 -4.814398 12.334795
					CHANNELS 3 Zrotation Yrotation Xrotation
					End Site
					{
						OFFSET 0.000000 0.000000 0.000000
					}
				}
			}
		}
	}
	JOINT Spine
	{
		OFFSET -0.253288 10.896323 -2.669631
		CHANNELS 3 Zrotation Yrotation Xrotation
		JOINT Spine1
		{
			OFFSET 0.548704 13.518043 0.109247
			CHANNELS 3 Zrotation Yrotation Xrotation
			JOINT Spine2
			{
				OFFSET 0.145701 5.292222 2.542457
				CHANNELS 3 Zrotation Yrotation Xrotation
				JOINT Neck
				{
					OFFSET -0.277840 21.387037 -4.285703
					CHANNELS 3 Zrotation Yrotation Xrotation
					JOINT Head
					{
						OFFSET 0.515184 6.496960 5.134897
						CHANNELS 3 Zrotation Yrotation Xrotation
						End Site
						{
							OFFSET 0.000000 0.000000 0.000000
						}
					}
				}
				JOINT LeftShoulder
				{
					OFFSET 7.884473 12.174932 -3.408961
					CHANNELS 3 Zrotation Yrotation Xrotation
					JOINT LeftArm
					{
						OFFSET 9.097692 3.046888 -0.886815
						CHANNELS 3 Zrotation Yrotation Xrotation
						JOINT LeftForeArm
						{
							OFFSET 25.961220 -1.277207 -2.745643
							CHANNELS 3 Zrotation Yrotation Xrotation
							JOINT LeftHand
							{
								OFFSET 24.923361 0.898606 -0.117091
								CHANNELS 3 Zrotation Yrotation Xrotation
								End Site
								{
									OFFSET 0.000000 0.000000 0.000000
								}
							}
						}
					}
				}
				JOINT RightShoulder
				{
					OFFSET -8.175920 11.883285 -3.861528
					CHANNELS 3 Zrotation Yrotation Xrotation
					JOINT RightArm
					{
						OFFSET -9.601238 3.255117 -0.914307
						CHANNELS 3 Zrotation Yrotation Xrotation
						JOINT RightForeArm
						{
							OFFSET -25.374195 -1.332924 -2.140099
							CHANNELS 3 Zrotation Yrotation Xrotation
							JOINT RightHand
							{
								OFFSET -25.529810 0.777228 -0.555919
								CHANNELS 3 Zrotation Yrotation Xrotation
								End Site
								{
									OFFSET 0.000000 0.000000 0.000000
								}
							}
						}
					}
				}
			}
		}
	}
}
MOTION
Frames: 10
Frame Time: 0.033333
26.022091 103.076561 23.012901 -95.670311 20.820029 167.432249 40.796070 27.611793 -41.914056 1.700469 4.277100 30.156348 -2.439990 11.598617 -0.052882 0.353292 -0.428643 -1.035501 -32.057987 -26.722442 -43.408330 10.382580 10.127304 35.372076 3.390212 2.500583 3.804384 3.217876 0.725432 -0.579913 -0.788923 3.677532 31.228370 1.968063 -0.555600 14.251093 2.793827 1.442339 -7.901530 -9.663876 12.276415 15.952272 10.022697 4.320053 -25.874570 -14.868050 1.761451 8.553444 -11.200185 9.234874 2.004610 -3.899958 -30.168966 -15.482739 79.747376 -5.908315 -12.032670 10.692682 1.592942 5.479606 11.037749 -12.784224 -18.026562 -40.596991 51.726174 -61.287291 -56.214264 1.686360 -20.498857 
25.259247 102.644852 23.763985 -93.450436 11.677025 -176.684100 40.777561 27.717183 -45.224109 3.173985 3.471504 26.070675 -0.961073 12.289587 1.908563 -0.251370 -0.078283 -0.592327 -37.703682 -21.388786 -27.879799 7.520342 12.836055 33.056306 5.427492 0.411835 5.778630 2.294029 0.706252 -0.486503 -1.389711 6.041637 29.163842 0.451804 -1.171144 11.510058 2.516422 2.219198 -6.341805 -9.427149 11.673224 13.765518 10.584367 3.940596 -25.920419 -12.605700 -1.103466 5.689956 -8.746673 6.387321 -0.741251 -2.689199 -26.993275 -19.882877 80.469169 -4.842715 -10.063863 8.979943 2.902968 3.248778 10.108306 -10.273285 -18.959787 -48.910330 54.114998 -66.246942 -53.689912 2.014925 -19.077992 
24.385317 102.322365 24.049391 -92.902771 3.580265 -165.872095 39.740893 27.510719 -49.713905 3.136801 3.032513 26.209762 0.822480 12.362522 2.531114 -0.672009 0.151706 -0.315529 -39.423292 -18.311091 -18.861158 6.437466 12.995322 32.069426 7.157685 -1.455800 8.068575 2.029678 0.494680 -0.469785 -2.203016 8.785447 30.075655 -0.420329 -1.760691 9.026223 2.684586 3.044143 -4.724847 -9.645204 11.787732 11.494639 10.548824 3.623114 -26.106786 -10.152125 -4.382405 2.865385 -6.720404 3.509622 -3.161246 -1.114991 -24.574768 -23.154325 79.158317 -4.803204 -7.884546 8.319615 5.369777 1.256082 11.579446 -6.384684 -18.179123 -61.244750 57.557307 -73.834096 -51.447977 3.255779 -17.246020 
23.628138 102.058067 23.984415 -95.478791 -5.728538 -154.044033 36.928942 25.341945 -56.470488 1.524727 2.078039 26.613910 1.686182 12.571026 1.290014 -0.606896 0.580166 -0.656024 -37.797933 -16.678378 -13.264470 4.381491 12.324789 25.530890 8.870364 -3.957994 9.300467 2.393027 -0.102928 -0.264875 -3.180278 11.742598 32.744794 -1.178685 -2.189486 7.496561 3.125997 3.884524 -3.678846 -9.665242 9.387755 6.829809 11.802698 1.196469 -26.808709 -6.996974 -9.529880 -1.838873 -3.673459 -2.442582 -7.313737 1.623443 -21.264911 -27.868079 76.169447 -5.166550 -6.424256 7.294294 10.366737 -1.706556 13.177154 0.714836 -16.388547 -72.172348 59.005606 -79.542053 -49.356931 6.246699 -13.927489 
23.279451 101.879997 23.618711 -101.471202 -12.728784 -143.085615 33.511058 22.122486 -63.586711 -0.995503 1.289311 30.925820 1.012221 11.248574 -2.278845 -0.416326 0.486665 -0.895796 -33.301051 -16.536886 -13.995438 2.120161 8.603066 16.741930 11.243194 -5.580780 9.129847 2.693666 -0.627026 0.124067 -3.495597 13.783087 37.898012 -1.429097 -2.733472 6.059814 3.155936 4.017507 -3.656366 -8.920064 7.498999 3.493214 13.081994 -1.276570 -26.285985 -4.234825 -15.093939 -5.730950 1.812933 -8.291896 -11.836334 3.399113 -19.369945 -30.954417 71.649330 -7.595730 -5.638509 6.261972 16.235564 -3.803665 15.118358 10.881585 -14.490400 -67.176738 60.110916 -72.602056 -50.251430 8.605219 -11.260662 
23.557901 102.331116 23.094080 -112.090129 -22.115101 -127.231140 29.982076 19.166737 -70.262951 -4.953402 -0.119427 34.877889 -1.349276 6.787902 -9.256371 -0.554005 0.461179 -1.138046 -28.032230 -16.332738 -20.898882 -0.489930 5.856294 9.942733 13.327893 -6.694238 8.750515 2.600835 -0.575794 1.547041 -3.169144 14.251641 42.735303 -1.457864 -2.722910 7.383617 3.262583 4.159374 -6.588508 -10.167135 3.529122 1.695231 14.915106 -5.154748 -25.891730 -0.108101 -20.952346 -9.111479 11.312816 -12.493023 -17.332200 6.603713 -23.353472 -31.320435 64.807541 -10.007431 -5.134863 3.978239 22.377625 -5.129971 12.059968 18.084197 -16.575181 -57.935787 56.857682 -66.209360 -49.874193 9.635831 -13.689493 
24.794155 103.597153 24.040205 -127.004363 -28.107674 -107.291697 27.532351 19.714610 -74.510701 -8.013023 0.035579 37.436489 -2.073770 2.304487 -16.881639 -1.025197 0.415912 -0.506209 -26.352643 -18.153576 -27.307022 -1.156679 3.949448 2.751526 18.027882 -6.207885 10.109786 1.611348 -0.475458 2.412879 -2.721662 13.171070 47.278359 -1.746473 -2.673427 6.743588 3.342335 3.791649 -8.189733 -12.048710 1.699636 1.961259 15.089270 -7.301756 -26.811031 6.818580 -25.927450 -14.161318 21.136409 -14.250335 -23.522633 3.526591 -20.539681 -31.725328 59.267372 -10.559340 -5.234621 -2.047377 26.395875 -7.783665 2.864545 22.670683 -23.518705 -41.458240 52.943166 -53.349264 -49.368690 10.147217 -14.537476 
27.366095 105.638428 24.453552 -141.966372 -26.928405 -91.265667 25.678141 21.879037 -77.057393 -10.016646 -3.528805 37.433336 -2.818683 -1.354243 -19.447489 -0.986344 0.358940 -0.263166 -26.965813 -20.866341 -35.176182 -0.898775 4.764065 0.613292 19.178727 -5.608144 10.233196 1.605517 -0.254298 2.493504 -0.655690 10.383590 52.198126 -1.562771 -3.486199 5.507535 3.321390 3.737326 -9.974387 -14.276571 0.585931 2.920306 14.307149 -7.202343 -29.167653 13.094122 -29.769140 -18.945197 26.853508 -14.381086 -27.440718 3.585288 -19.158733 -30.899197 56.215158 -12.946833 -2.590286 -10.213012 30.587552 -11.090859 -7.859057 23.418100 -33.061380 -30.280213 45.290735 -47.669142 -50.344133 9.690962 -14.629395 
30.894377 107.486481 24.659992 -152.334247 -22.142238 -83.425521 26.295061 24.813659 -73.567002 -9.636004 -7.800596 28.760268 -5.558869 -4.050044 -18.540386 -0.763949 0.487763 -0.347746 -28.983793 -22.227977 -40.692256 0.719504 5.394369 1.938671 19.184353 -4.864273 6.759588 2.181760 -0.390943 2.266740 0.986887 7.157033 54.391188 -0.896762 -3.750477 4.036821 3.521619 3.423766 -10.936516 -14.143756 0.829544 2.764430 13.805992 -6.663747 -30.827197 17.261877 -31.552821 -21.564899 29.896943 -14.958891 -29.531333 3.236823 -19.125967 -27.954017 54.322187 -16.435722 0.752243 -15.662667 32.734303 -12.924067 -17.510550 22.471683 -39.995555 -19.810126 35.811452 -43.399094 -54.047570 9.641745 -15.047073 
34.854702 109.355606 24.939821 -163.406490 -15.266853 -78.840412 28.437748 27.014805 -63.756663 -6.247350 -9.881861 18.322948 -9.824969 -0.723055 -11.922901 -0.214307 0.753485 -1.263492 -31.521696 -22.333021 -44.016365 1.704192 6.893085 5.795643 17.673794 -3.981130 2.506689 3.970954 -0.534849 2.109224 2.730579 3.419537 53.079104 -0.706239 -4.119376 4.537968 3.180057 3.030886 -11.071989 -14.165604 0.742979 4.024642 13.647050 -7.309944 -31.958938 19.763987 -33.630088 -23.468796 31.461761 -16.429257 -32.654861 4.443057 -17.112537 -29.912705 52.382944 -19.100962 5.470142 -17.813751 33.640195 -13.813986 -23.655800 21.991998 -44.199138 -19.334720 32.485647 -44.192070 -55.532480 10.245192 -12.672661 
